<svg width="512" height="512" viewBox="0 0 512 512" fill="none" xmlns="http://www.w3.org/2000/svg">
<g clip-path="url(#clip0_135_22)">
<path d="M498.1 5.60004C508.2 12.6 513.5 24.7 511.6 36.8L447.6 452.8C446.1 462.5 440.2 471 431.6 475.8C423 480.6 412.7 481.2 403.6 477.4L277.3 424.9L237.2 499.4C232 509.1 220.9 514 210.2 511.3C199.5 508.6 192 499 192 488V392C192 386.7 193.8 381.5 197.1 377.3L362.4 164.7C364.9 157.6 355.9 150.4 349.4 156.3L170.4 318.2L138.4 347.1C129.2 355.4 116.1 357.7 104.6 352.9L19.6 317.5C8.40001 312.8 0.800009 302.2 0.100009 290C-0.599991 277.8 5.60001 266.3 16.2 260.2L464.2 4.20004C474.9 -1.89996 488.1 -1.29996 498.2 5.60004H498.1Z" fill="white"/>
</g>
<defs>
<clipPath id="clip0_135_22">
<rect width="512" height="512" fill="white"/>
</clipPath>
</defs>
</svg>
